<svg xmlns="http://www.w3.org/2000/svg" xmlns:xlink="http://www.w3.org/1999/xlink" viewBox="0 0 603 182" fill="#fff"><path d="M374.006 142.184c-35 25.797-85.73 39.56-129.406 39.56-61.242 0-116.376-22.65-158.087-60.324-3.278-2.962-.34-7 3.59-4.693 45.016 26.19 100.674 41.947 158.167 41.947 38.775 0 81.43-8.022 120.65-24.67 5.925-2.516 10.88 3.88 5.086 8.18"/><path d="M388.557 125.536c-4.457-5.715-29.573-2.7-40.846-1.363-3.432.42-3.957-2.57-.863-4.72 20.003-14.077 52.827-10.014 56.654-5.295 3.83 4.745-.995 37.648-19.792 53.352-2.884 2.41-5.637 1.127-4.352-2.072 4.22-10.54 13.685-34.16 9.202-39.902M348.497 20.066V6.38c0-2.07 1.573-3.46 3.46-3.46h61.27c1.966 0 3.54 1.416 3.54 3.46V18.1c-.027 1.966-1.68 4.535-4.615 8.6l-31.75 45.328c11.8-.29 24.252 1.468 34.948 7.498 2.412 1.363 3.068 3.356 3.25 5.322V99.45c0 1.993-2.2 4.326-4.508 3.12-18.85-9.883-43.887-10.958-64.73.105-2.123 1.154-4.35-1.153-4.35-3.146V85.66c0-2.228.025-6.03 2.253-9.41l36.782-52.75h-32.01c-1.967 0-3.54-1.39-3.54-3.434M125 105.454h-18.64c-1.784-.13-3.2-1.468-3.33-3.172V6.617c0-1.914 1.598-3.435 3.59-3.435h17.383c1.81.08 3.25 1.468 3.382 3.2v12.504h.34C132.26 6.8 140.78 1.164 152.265 1.164c11.666 0 18.954 5.636 24.198 17.722 4.51-12.086 14.76-17.722 25.744-17.722 7.813 0 16.36 3.224 21.577 10.46 5.9 8.05 4.693 19.74 4.693 29.992l-.026 60.378c0 1.913-1.6 3.46-3.59 3.46h-18.614c-1.862-.13-3.356-1.625-3.356-3.46V51.29c0-4.037.366-14.104-.525-17.932-1.39-6.423-5.558-8.232-10.96-8.232-4.508 0-9.227 3.015-11.14 7.84-1.915 4.823-1.73 12.897-1.73 18.324v50.704c0 1.913-1.6 3.46-3.593 3.46h-18.614c-1.888-.13-3.356-1.625-3.356-3.46l-.026-50.704c0-10.67 1.757-26.374-11.483-26.374-13.397 0-12.872 15.31-12.872 26.374v50.704c0 1.913-1.6 3.46-3.59 3.46M469.515 1.164c27.66 0 42.63 23.752 42.63 53.954 0 29.18-16.544 52.33-42.63 52.33-27.16 0-41.947-23.754-41.947-53.353 0-29.782 14.97-52.93 41.947-52.93m.158 19.53c-13.738 0-14.603 18.72-14.603 30.386 0 11.694-.186 36.653 14.443 36.653 14.446 0 15.128-20.135 15.128-32.404 0-8.076-.34-17.724-2.78-25.38-2.096-6.66-6.264-9.254-12.19-9.254m78.338 84.758h-18.562c-1.86-.13-3.356-1.625-3.356-3.46l-.026-95.692c.157-1.756 1.704-3.12 3.592-3.12h17.277c1.625.08 2.962 1.18 3.33 2.674v14.63h.34c5.217-13.083 12.532-19.322 25.404-19.322 8.363 0 16.517 3.015 21.76 11.273 4.877 7.655 4.877 20.528 4.877 29.782v60.22c-.21 1.676-1.757 3.013-3.592 3.013H580.36c-1.705-.13-3.12-1.39-3.304-3.015v-51.96c0-10.46 1.206-25.773-11.667-25.773-4.537 0-8.706 3.042-10.777 7.656-2.62 5.847-2.962 11.667-2.962 18.117v51.516c-.025 1.913-1.65 3.46-3.643 3.46"/><use xlink:href="#a" transform="translate(244.367)"/><path d="M55.288 59.758V55.72c-13.475 0-27.71 2.885-27.71 18.772 0 8.05 4.168 13.502 11.325 13.502 5.243 0 9.936-3.225 12.898-8.468 3.673-6.45 3.49-12.506 3.49-19.768m18.797 45.434c-1.232 1.1-3.015 1.18-4.405.446-6.186-5.14-7.287-7.524-10.695-12.427-10.225 10.436-17.46 13.556-30.726 13.556-15.68 0-27.895-9.674-27.895-29.048 0-15.127 8.206-25.43 19.872-30.464 10.12-4.457 24.25-5.244 35.052-6.476v-2.412c0-4.43.34-9.674-2.255-13.5-2.28-3.436-6.633-4.85-10.46-4.85-7.106 0-13.45 3.643-14.997 11.193-.315 1.677-1.547 3.33-3.225 3.407l-18.09-1.94c-1.52-.34-3.198-1.573-2.778-3.906C7.652 6.854 27.445.247 45.17.247c9.07 0 20.92 2.412 28.077 9.28 9.07 8.47 8.206 19.768 8.206 32.064v29.048c0 8.73 3.618 12.558 7.026 17.277 1.204 1.678 1.466 3.697-.055 4.955-3.8 3.172-10.565 9.07-14.288 12.375l-.052-.053" id="a"/></svg>