<svg id="layer" xmlns="http://www.w3.org/2000/svg" viewBox="0 0 652 652">
  <path class="st0" fill="#ffffff" d="M71.2 70.6h500v500h-500z" />
  <path class="st1" fill="#000"
    d="M390.3 234.4l-24.6 101.3h-.5l-24.6-101.3h-75.5v115.1c-1.7-22.1-15.3-33.2-29.7-38.1 12.8-7 21.2-16.4 21.2-33.8 0-17.6-9.7-43.2-55-43.2h-94.3v172.3H205c29.1 0 57.7-16.3 60.1-47.9v47.9h50.2V296.2h.5l29.9 110.5h39.6l29.9-110.5h.5v110.5h50.2V234.4h-75.6zm-230 41h28c10.9 0 18.1 3.1 18.1 11.8 0 11.1-7 14.2-18.1 14.2h-28v-26zm31.1 90.3h-31.1v-32.1h33.3c12.5 0 18.6 5.5 18.6 15.7 0 13.2-9.7 16.4-20.8 16.4m290.7-131.3h53.1v172.3h-53.1V234.4z" />
</svg>