<svg xmlns="http://www.w3.org/2000/svg" width="157" height="34" viewBox="-0.117 -0.314 157 34"><path fill="#fff" d="M48.44 20.7c.102-.202.27-.536.335-.702l4.073-9.883 4.006 9.982c.067.167.2.434.3.667l-.5.1c-1.135.302-2.403.5-3.705.5-1.304 0-2.505-.165-3.774-.5-.234-.065-.568-.165-.735-.165M7.01 5.64c4.54 0 7.746.935 9.75 2.704 2.403 2.104 3.605 4.874 3.605 8.346 0 3.307-1.168 6.043-3.473 8.18-2.003 1.903-5.274 2.904-9.882 2.904H5.542V5.642h1.47zM147.23 8.48c2.27 2.202 3.37 4.973 3.37 8.21 0 3.206-1.134 5.944-3.37 8.214-2.237 2.237-4.94 3.372-8.113 3.372-6.376 0-11.45-5.24-11.45-11.585 0-3.203 1.135-5.974 3.372-8.245 2.202-2.236 4.938-3.338 8.077-3.338s5.842 1.135 8.112 3.372zm-53.785 1.936l4.04-3.473C94.012 2.303 89.37 0 83.896 0 74.583 0 67.07 7.444 67.07 16.76c0 9.113 7.48 16.625 16.594 16.625 2.303 0 4.507-.5 6.643-1.47 2.07-.935 3.873-2.236 5.342-3.938 1.4-1.568 2.303-3.372 2.837-5.342.435-1.637.7-3.64.568-6.043l-.068-.97H84.432v5.11h8.946c-.233 2.002-1.27 3.738-3.07 5.174-1.97 1.603-4.207 2.37-6.71 2.37-2.906 0-5.51-1.202-7.914-3.57-2.17-2.204-3.27-4.843-3.27-7.913 0-3.24 1.134-6.043 3.47-8.38 2.204-2.237 4.875-3.306 7.947-3.306 3.94 0 7.045 1.803 9.615 5.31zm-34.22 15.39l2.973 7.078h5.876L54.284.434h-2.67l-14.156 32.45H43.3l3.106-7.212c.065-.2.1-.334.133-.467.132.066.333.133.565.233 1.737.668 3.807 1.035 5.844 1.035 2.002 0 3.972-.4 5.14-.802.602-.198.802-.298.968-.4.034.135.133.437.168.537zm-52.38 7.078c5.94 0 10.515-1.335 13.587-4.106 3.505-3.138 5.275-7.144 5.275-12.052 0-5.108-1.803-9.214-5.41-12.286C17.26 1.836 12.754.533 6.912.533H0v32.35h6.844zM35.354.534h-5.31v32.35h5.31V.534zm72.48 17.26h11.316V12.72h-11.315V5.642h12.32V.532h-17.63v32.352h17.66v-5.108h-12.35v-9.983zm19.43-12.888c-3.305 3.24-4.94 7.213-4.94 11.82 0 9.312 7.51 16.658 16.792 16.658 9.314 0 16.793-7.31 16.793-16.66 0-4.573-1.67-8.478-4.908-11.784C147.73 1.636 143.757 0 139.116 0c-4.606 0-8.58 1.636-11.852 4.906z"/></svg>