<svg width="486" height="365" viewBox="0 0 486 365" xmlns="http://www.w3.org/2000/svg"><title>Shape</title><path d="M485.21 303.906c0 10.637-2.99 20.498-7.784 29.174l-153.2-171.41 151.54-132.584c5.894 9.355 9.445 20.344 9.445 32.22v242.6zM242.607 192.793L453.47 8.293C444.816 3.556 435.072.65 424.56.65H60.65c-10.523 0-20.27 2.907-28.888 7.644l210.844 184.5zm58.787-11.162l-48.81 42.736c-2.854 2.487-6.41 3.73-9.977 3.73-3.57 0-7.125-1.243-9.98-3.73l-48.82-42.736-155.14 173.6c9.3 5.834 20.198 9.33 31.984 9.33h363.91c11.786 0 22.69-3.496 31.985-9.33l-155.15-173.6zM9.448 29.087C3.554 38.44 0 49.43 0 61.306v242.6c0 10.638 2.978 20.5 7.79 29.175l153.18-171.44L9.448 29.086z" fill="#FFF" fill-rule="nonzero"/></svg>