<?xml version="1.0" encoding="utf-8"?>
<svg viewBox="-2.765 -162.43 683.096 349.377" xmlns="http://www.w3.org/2000/svg">
  <path fill="#ffffff" d="M 383.914 23.292 C 384.107 22.322 384.107 21.357 384.107 20.579 L 384.107 10.466 C 384.107 9.498 383.699 8.548 382.782 7.961 L 387.217 6.449 L 387.217 20.579 C 387.217 21.356 387.217 22.322 387.41 23.291 L 383.914 23.291 M 396.534 23.291 L 403.574 8.781 L 398.5 8.781 C 397.718 8.781 397.172 8.859 396.734 9.031 L 396.734 6.835 L 407.636 6.835 L 400.006 23.29 L 396.536 23.29 L 396.534 23.291 Z M 417.904 23.685 C 416.674 23.685 415.377 23.507 414.256 22.985 L 414.312 21.597 C 415.318 21.969 416.498 22.247 417.856 22.081 C 419.819 21.847 421.366 20.264 421.366 18.169 C 421.366 15.812 419.856 14.531 417.53 14.531 C 416.547 14.531 415.623 14.701 414.754 15.039 L 415.344 6.834 L 423.909 6.834 L 423.909 9 C 423.33 8.847 422.734 8.772 422.135 8.777 L 417.993 8.777 L 417.753 12.947 C 418.405 12.857 418.973 12.787 419.797 12.824 C 422.769 12.982 424.621 14.984 424.621 17.777 C 424.619 21.07 422.066 23.687 417.903 23.687 M 444.086 13.277 C 443.916 8.869 441.626 6.201 437.456 6.567 C 434.301 6.837 432.223 9.514 432.496 12.704 C 432.746 15.681 434.802 17.337 438.13 17.004 C 439.378 16.874 440.543 16.214 440.944 15.548 C 440.866 19.824 438.369 22.41 433.93 22.248 L 433.904 23.585 C 439.549 24.302 444.374 20.96 444.087 13.278 L 444.086 13.277 Z M 438.036 15.411 C 436.278 15.411 435.692 13.866 435.703 11.741 C 435.707 10.577 435.911 7.868 438.063 7.868 C 440.023 7.868 440.409 10.385 440.405 11.543 C 440.405 12.51 440.391 15.413 438.037 15.413 L 438.036 15.411 Z"/>
  <path fill="#ffffff" d="M 342.4 32.593 L 308.692 32.593 L 268.742 -101.18 C 268.35 -102.534 267.567 -105.05 267.567 -106.214 C 267.567 -107.761 268.742 -108.73 270.307 -108.73 C 271.482 -108.73 272.463 -108.15 272.855 -106.99 L 315.747 22.528 C 361.591 -14.062 386.071 -59.366 381.763 -115.314 C 388.028 -116.669 396.058 -119.577 400.753 -122.284 C 411.523 -62.658 391.355 -8.064 342.401 32.593"/>
  <path fill="#ffffff" d="M 223.114 23.303 C 223.309 22.333 223.309 21.363 223.309 20.593 L 223.309 9.17 C 223.309 8.204 223.309 7.813 223.113 6.848 L 232.318 6.848 L 232.315 8.978 C 231.81 8.866 231.065 8.783 230.285 8.783 L 226.639 8.788 L 226.639 13.818 L 229.379 13.818 C 229.769 13.818 230.484 13.798 231.141 13.673 L 231.141 15.9 C 230.514 15.768 229.771 15.752 229.378 15.752 L 226.638 15.752 L 226.638 21.366 L 230.946 21.366 C 231.729 21.366 232.156 21.24 232.711 21.098 L 232.711 23.308 L 223.111 23.308 M 243.478 23.691 C 241.7 23.691 240.082 23.131 239.168 22.401 L 239.168 20.781 C 240.386 21.591 241.708 22.116 243.482 22.004 C 244.989 21.904 246.258 21.004 246.335 19.537 C 246.407 18.062 245.475 17.301 243.478 16.332 C 240.358 14.912 239.13 13.772 239.168 11.299 C 239.21 8.693 241.238 6.534 244.458 6.457 C 245.9 6.425 247.321 6.705 248.308 7.273 L 248.298 9.01 C 247.329 8.377 246.198 8.04 245.041 8.04 C 243.311 8.04 242.071 8.924 241.941 10.223 C 241.881 10.841 242.087 11.477 242.636 12.015 C 243.109 12.485 243.866 12.851 245.044 13.425 C 248.126 14.752 249.351 16.138 249.351 18.655 C 249.351 21.17 247.591 23.692 243.478 23.692 M 265.02 8.977 L 262.28 8.977 L 262.28 20.597 C 262.28 21.364 262.28 22.334 262.474 23.305 L 258.754 23.305 C 258.948 22.335 258.948 21.365 258.948 20.595 L 258.948 8.973 L 256.208 8.977 C 255.623 8.977 255.028 8.977 254.444 9.17 L 254.444 6.848 L 266.78 6.848 L 266.78 9.17 C 266.194 8.978 265.606 8.978 265.02 8.978 M 278.924 23.306 L 276.967 23.306 C 276.574 23.306 276.103 23.306 275.789 23.436 L 275.789 21.426 C 276.102 21.534 276.574 21.558 276.966 21.558 L 278.922 21.558 C 279.314 21.558 279.712 21.51 280.095 21.426 L 280.095 23.453 C 279.801 23.323 279.313 23.306 278.921 23.306 M 278.333 18.266 L 273.435 18.266 C 273.631 17.886 273.631 17.494 273.631 17.3 L 273.633 7.813 C 273.631 7.623 273.631 7.233 273.439 6.848 L 277.746 6.848 C 281.663 6.848 284.016 8.203 284.016 12.268 C 284.014 15.75 281.664 18.268 278.334 18.268 M 277.944 8.33 L 276.374 8.33 L 276.374 16.747 L 277.554 16.747 C 279.708 16.747 281.077 15.515 281.077 12.231 C 281.077 9.567 279.707 8.331 277.944 8.331"/>
  <path fill="#ffffff" d="M 411.72 -118.8 L 411.72 -111.055 L 409.962 -111.055 L 409.962 -118.8 L 407.612 -118.8 L 407.612 -120.347 L 414.07 -120.347 L 414.07 -118.8 L 411.72 -118.8 M 422.1 -111.055 L 422.1 -118.41 L 421.907 -118.41 L 419.947 -111.055 L 418.772 -111.055 L 416.812 -118.411 L 416.812 -111.056 L 415.246 -111.056 L 415.246 -120.348 L 417.596 -120.348 L 419.358 -113.768 L 421.124 -120.348 L 423.474 -120.348 L 423.474 -111.056 L 422.1 -111.056 M 400.955 -161 C 382.935 -147.066 354.935 -141.45 321.223 -154.033 C 308.103 -158.873 296.55 -161 286.95 -161 C 261.688 -161 248.765 -146.873 248.765 -131.962 C 248.765 -119.768 257.189 -111.442 268.157 -111.442 C 270.7 -111.442 273.247 -112.024 275.397 -112.995 L 320.637 10.133 C 324.163 7.811 339.46 -7.289 344.159 -14.062 C 341.612 -14.452 339.263 -16.388 337.889 -19.48 C 337.889 -19.48 289.889 -123.646 287.139 -129.926 C 284.169 -136.708 281.703 -141.466 277.753 -143.564 C 282.481 -145.218 290.271 -144.916 296.811 -142.3 C 303.041 -139.805 313.473 -133.183 326.569 -127.455 C 340.447 -121.392 350.392 -118.659 361.403 -118.115 C 379.958 -117.198 400.449 -124.925 411.133 -134.863 L 400.953 -161 L 400.955 -161 Z M 267.567 -122.284 C 263.649 -122.284 260.322 -125.574 260.322 -129.446 C 260.322 -133.32 263.649 -136.611 267.567 -136.611 C 271.482 -136.614 274.813 -133.321 274.813 -129.447 C 274.813 -125.577 271.483 -122.285 267.567 -122.285 L 267.567 -122.284 Z"/>
  <path fill="#ffffff" d="M 351.025 -75.26 C 362.762 -101.216 374.579 -118.117 375.175 -118.895 C 374.971 -117.945 369.891 -98.015 357.863 -72.193 C 346.126 -46.236 334.295 -29.335 333.698 -28.553 C 333.903 -29.513 338.994 -49.435 351.025 -75.26 Z M 340.549 -82.474 C 350.159 -103.752 360.052 -117.524 360.553 -118.161 C 360.403 -117.375 356.433 -100.943 346.563 -79.781 C 336.953 -58.501 327.04 -44.729 326.539 -44.093 C 326.693 -44.881 330.663 -61.313 340.549 -82.475 L 340.549 -82.474 Z M 331.469 -90.362 C 339.464 -108.032 347.725 -119.43 348.139 -119.958 C 348.019 -119.303 344.786 -105.651 336.579 -88.076 C 328.586 -70.406 320.332 -59.016 319.907 -58.488 C 320.037 -59.143 323.271 -72.788 331.467 -90.362 L 331.469 -90.362 Z M 323.449 -98.406 C 330.126 -113.176 337.059 -122.699 337.411 -123.141 C 337.304 -122.589 334.614 -111.164 327.749 -96.479 C 321.085 -81.711 314.159 -72.185 313.809 -71.746 C 313.913 -72.296 316.603 -83.716 323.449 -98.406 Z M 316.121 -106.341 C 321.677 -118.651 327.493 -126.565 327.786 -126.933 C 327.703 -126.473 325.509 -116.935 319.796 -104.69 C 314.241 -92.38 308.421 -84.464 308.132 -84.1 C 308.214 -84.556 310.408 -94.1 316.122 -106.34 L 316.121 -106.341 Z M 309.458 -113.896 C 314.033 -124.039 318.811 -130.571 319.052 -130.876 C 318.982 -130.494 317.156 -122.64 312.446 -112.561 C 307.872 -102.413 303.099 -95.878 302.85 -95.581 C 302.922 -95.957 304.752 -103.813 309.457 -113.896 L 309.458 -113.896 Z M 303.223 -121.266 C 306.948 -129.516 310.89 -134.809 311.09 -135.05 C 311.035 -134.74 309.608 -128.32 305.78 -120.12 C 302.057 -111.868 298.113 -106.578 297.915 -106.34 C 297.967 -106.647 299.393 -113.067 303.223 -121.266 Z M 303.588 -139.039 C 303.551 -138.793 302.494 -133.733 299.483 -127.296 C 296.568 -120.818 293.409 -116.696 293.249 -116.506 C 293.289 -116.75 294.345 -121.816 297.359 -128.249 C 300.271 -134.727 303.432 -138.851 303.589 -139.039 L 303.588 -139.039 Z"/>
  <path fill="#ffffff" d="M 671.62 67.162 C 667.842 67.162 664.77 70.205 664.77 73.892 C 664.77 77.659 667.84 80.67 671.62 80.67 C 675.393 80.67 678.444 77.658 678.444 73.89 C 678.444 70.205 675.394 67.162 671.62 67.162 M 671.62 79.355 C 668.524 79.355 666.068 76.951 666.068 73.89 C 666.068 70.9 668.524 68.49 671.62 68.49 C 674.67 68.49 677.14 70.9 677.14 73.89 C 677.142 76.95 674.67 79.355 671.62 79.355"/>
  <path fill="#ffffff" d="M 674.775 72.252 C 674.775 71.668 674.522 71.059 674.005 70.758 C 673.475 70.481 672.893 70.44 672.321 70.44 L 669.316 70.44 L 669.316 77.264 L 670.333 77.264 L 670.333 74.137 L 671.543 74.137 L 673.517 77.264 L 674.683 77.264 L 672.601 74.137 C 673.818 74.087 674.776 73.587 674.776 72.252 M 671.456 73.27 L 670.333 73.27 L 670.333 71.217 L 672.123 71.217 C 672.976 71.217 673.739 71.334 673.739 72.229 C 673.739 73.449 672.422 73.269 671.457 73.269 M 626.287 185.183 C 610.567 185.183 601.425 180.296 596.485 180.296 L 596.485 154.993 L 599.045 154.993 C 601.239 166.016 612.758 173.613 625.012 173.613 C 635.437 173.613 643.667 168.186 643.667 157.343 C 643.667 149.933 640.007 143.426 630.501 136.913 L 617.151 127.879 C 605.629 120.109 595.939 111.246 595.939 95.339 C 595.939 76.541 608.735 64.426 629.943 64.426 C 642.567 64.426 647.863 67.326 655.181 68.046 L 655.181 89.912 L 652.621 89.912 C 650.969 81.6 642.203 74.92 630.499 74.92 C 619.519 74.92 614.589 80.886 614.589 88.833 C 614.589 95.703 618.795 101.126 629.033 107.997 L 640.555 115.585 C 658.289 127.341 663.775 135.829 663.775 150.475 C 663.775 171.982 648.595 185.185 626.288 185.185 L 626.287 185.183 Z M 551.137 185.183 C 535.407 185.183 526.271 180.296 521.331 180.296 L 521.331 154.993 L 523.895 154.993 C 526.088 166.016 537.611 173.613 549.853 173.613 C 560.285 173.613 568.508 168.186 568.508 157.343 C 568.508 149.933 564.853 143.426 555.345 136.913 L 541.993 127.879 C 530.473 120.109 520.785 111.246 520.785 95.339 C 520.785 76.541 533.585 64.426 554.795 64.426 C 567.413 64.426 572.715 67.326 580.03 68.046 L 580.03 89.912 L 577.468 89.912 C 575.821 81.6 567.044 74.92 555.343 74.92 C 544.37 74.92 539.435 80.886 539.435 88.833 C 539.435 95.703 543.635 101.126 553.877 107.997 L 565.399 115.585 C 583.132 127.341 588.619 135.829 588.619 150.475 C 588.619 171.982 573.447 185.185 551.136 185.185 M 448.736 183.373 L 448.736 181.025 C 449.653 180.127 449.839 175.425 449.839 172.895 L 449.839 80.699 C 449.839 73.114 447.276 69.129 444.532 68.589 L 444.532 66.239 L 508.712 66.239 L 508.712 82.143 L 506.338 82.143 C 505.788 79.433 500.308 77.631 496.83 77.631 L 472.512 77.631 L 472.512 117.754 L 492.986 117.754 C 495.732 117.754 502.133 117.034 502.866 115.224 L 505.243 115.224 L 505.243 130.411 L 502.865 130.411 C 501.945 129.509 496.831 129.145 493.72 129.145 L 472.512 129.145 L 472.512 171.981 L 496.645 171.981 C 503.232 171.981 507.255 169.451 507.989 166.563 L 510.365 166.563 L 510.365 183.373 L 448.737 183.373 L 448.736 183.373 Z M 415.093 183.373 L 354.578 77.633 C 352.555 74.01 348.722 69.131 345.248 68.59 L 345.248 66.24 L 374.498 66.24 L 416.735 141.072 L 416.735 80.7 C 416.735 73.115 414.725 69.13 412.165 68.59 L 412.165 66.24 L 429.538 66.24 L 429.538 183.373 L 415.092 183.373 L 415.093 183.373 Z M 352.197 183.373 L 352.197 181.025 C 353.11 180.127 353.292 173.252 353.292 171.982 L 353.292 91.187 L 366.095 114.501 L 366.095 171.443 C 366.095 175.966 367.005 180.478 367.92 181.025 L 367.92 183.373 L 352.2 183.373 L 352.197 183.373 Z M 318.894 183.373 L 258.369 77.633 C 256.359 74.01 252.519 69.131 249.042 68.59 L 249.042 66.24 L 278.302 66.24 L 320.54 141.072 L 320.54 80.7 C 320.54 73.115 318.53 69.13 315.97 68.59 L 315.97 66.24 L 333.347 66.24 L 333.347 183.373 L 318.895 183.373 L 318.894 183.373 Z M 255.991 183.373 L 255.991 181.025 C 256.906 180.127 257.088 173.252 257.088 171.982 L 257.088 91.187 L 269.888 114.501 L 269.888 171.443 C 269.888 175.966 270.801 180.478 271.718 181.025 L 271.718 183.373 L 255.99 183.373 L 255.991 183.373 Z M 213.386 183.373 L 213.386 181.025 C 214.116 180.478 214.666 175.425 214.666 172.349 L 214.666 80.7 C 214.666 73.115 212.106 69.13 209.363 68.59 L 209.363 66.24 L 237.156 66.24 L 237.156 170.357 C 237.156 177.054 238.434 180.847 239.168 181.025 L 239.168 183.373 L 213.385 183.373 L 213.386 183.373 Z M 192.91 163.13 C 188.52 177.768 176.634 185.184 157.437 185.184 C 129.642 185.184 117.937 169.824 117.937 146.319 L 117.937 80.7 C 117.937 73.116 115.377 69.132 112.637 68.59 L 112.637 66.24 L 140.797 66.24 L 140.797 146.862 C 140.797 154.63 141.707 158.79 143.357 162.05 C 147.013 169.093 153.594 171.263 160.725 171.263 C 168.225 171.263 175.353 169.093 179.01 162.05 C 180.656 158.79 181.572 154.63 181.572 145.958 L 181.572 80.7 C 181.572 73.116 179.01 69.132 176.267 68.59 L 176.267 66.24 L 195.104 66.24 L 195.104 144.33 C 195.106 153.54 194.372 158.607 192.91 163.13 Z M 99.655 126.074 L 99.655 179.756 C 98.375 180.296 82.282 185.541 61.069 185.541 C 27.976 185.54 0 161.866 0 112.34 C 0 69.494 24.5 41.113 59.974 41.113 C 77.346 41.113 85.576 45.456 90.694 45.456 C 91.424 45.456 91.792 45.276 91.974 45.093 L 93.8 45.093 L 93.8 74.195 L 90.876 74.195 C 87.402 59.373 75.882 52.865 63.083 52.865 C 42.238 52.865 25.23 70.035 25.23 111.433 C 25.23 155.716 44.065 173.255 63.813 173.255 C 69.483 173.255 73.503 172.53 76.067 171.445 L 76.067 129.149 C 76.067 122.999 74.42 115.227 67.655 113.786 L 67.655 111.251 L 100.932 111.251 L 100.932 113.606 C 100.02 114.138 99.655 122.458 99.655 126.076 L 99.655 126.074 Z"/>
</svg>