<svg viewBox="0 0 239 35" xmlns="http://www.w3.org/2000/svg"><path d="M96.293 22.09l-3.164 3.473V34H85.41V2.008h7.712v14.106l2.68-4.065 6.9-10.047h9.536l-10.81 14.15L112.243 34h-9.14l-6.81-11.91zm38.38 5.933h-10.57L122.26 34h-8.24l11.734-31.992h7.25L144.824 34h-8.283l-1.862-5.977zm-8.724-5.954h6.872l-3.45-11.1-3.428 11.094zM176.17 34h-7.67l-11.337-19.907V34h-7.712V2.008h7.717l11.316 19.907V2.008h7.69zm23.68-8.503c0-1.128-.4-2.007-1.198-2.637-.8-.63-2.2-1.282-4.208-1.956-2.007-.674-3.648-1.325-4.922-1.955-4.146-2.04-6.218-4.84-6.218-8.4 0-1.77.516-3.336 1.55-4.69 1.032-1.356 2.493-2.41 4.382-3.165 1.89-.755 4.014-1.133 6.372-1.133 2.3 0 4.362.41 6.186 1.23 1.823.82 3.24 1.99 4.25 3.505 1.012 1.516 1.518 3.25 1.518 5.196h-7.69c0-1.305-.4-2.315-1.198-3.033-.8-.717-1.88-1.076-3.24-1.076-1.378 0-2.466.305-3.264.913-.8.607-1.198 1.38-1.198 2.317 0 .82.44 1.566 1.32 2.23.877.67 2.423 1.357 4.635 2.068 2.21.71 4.027 1.476 5.448 2.296 3.457 1.993 5.186 4.74 5.186 8.24 0 2.8-1.05 4.996-3.16 6.59-2.11 1.6-5.002 2.397-8.68 2.397-2.59 0-4.94-.466-7.04-1.396s-3.685-2.205-4.747-3.824c-1.062-1.618-1.593-3.48-1.593-5.59h7.732c0 1.713.44 2.976 1.33 3.79.884.812 2.323 1.22 4.315 1.22 1.275 0 2.282-.276 3.022-.825.74-.55 1.11-1.32 1.11-2.317zm39.06-23.49v20.94c0 2.374-.506 4.428-1.517 6.164-1.01 1.74-2.46 3.06-4.35 3.97s-4.124 1.36-6.702 1.36c-3.89 0-6.96-1.01-9.2-3.03-2.243-2.02-3.385-4.79-3.43-8.304V2.008h7.755v21.247c.088 3.5 1.714 5.252 4.878 5.252 1.598 0 2.806-.44 3.627-1.32.82-.877 1.23-2.306 1.23-4.283V2.008h7.71zM13.236 2.2v11.772h-10.8v20.124H.06V2.2zm-2.304 4.932v-3.06H2.436v3.06zM2.436 8.86v3.24h8.496V8.86zM16.62 2.2h13.5v28.836c0 2.844-1.332 3.024-6.012 3.024-.072-.612-.396-1.62-.684-2.268-.108.144-.18.288-.252.432-3.708-1.008-6.408-3.06-8.064-5.976-.972 2.232-3.276 4.428-8.568 6.084-.288-.468-.936-1.224-1.44-1.62 5.4-1.476 7.38-3.672 8.1-5.652H5.388v-1.908h8.172v-3.06H6V18.22h4.14c-.36-.972-1.044-2.196-1.728-3.132l1.908-.576c.9 1.116 1.764 2.628 2.052 3.672l-.108.036h4.932c.684-1.08 1.548-2.772 1.98-3.888l2.556 1.008c-.108.216-.396.288-.72.252-.432.72-1.08 1.764-1.692 2.628h4.608v1.872h-8.136v3.06h8.82v1.908h-7.956c1.44 2.7 4.176 4.572 7.884 5.364-.36.288-.756.792-1.08 1.26.972.036 1.872.072 2.556.072 1.548 0 1.728 0 1.728-.72V14.008H16.62zm11.124 4.932v-3.06H18.96v3.06zM18.96 8.86v3.276h8.784V8.86zm51.08-1.44v2.268h-2.412c-.864 5.94-2.268 10.872-4.536 14.868 1.836 3.276 4.212 5.868 7.236 7.452-.576.504-1.332 1.404-1.728 2.088-2.88-1.692-5.148-4.176-6.984-7.236-2.196 3.024-5.04 5.436-8.784 7.236-.252-.576-.9-1.584-1.332-2.052 3.852-1.764 6.732-4.284 8.856-7.596-1.476-3.06-2.592-6.588-3.42-10.44-.72 1.656-1.476 3.132-2.34 4.356-.396-.468-1.26-1.188-1.836-1.548 2.556-3.6 4.392-9.936 5.436-16.2l3.06.648c-.072.288-.324.432-.792.432-.36 1.908-.792 3.852-1.296 5.724zm-4.86 2.268h-6.66l-.108.36c.72 4.32 1.8 8.352 3.348 11.844 1.656-3.384 2.7-7.452 3.42-12.204zM54.416 20.2v2.124h-3.24c-.54 2.232-1.368 4.104-2.556 5.724 1.62.864 3.06 1.728 4.176 2.556l-1.62 1.8c-1.08-.864-2.52-1.764-4.104-2.628-2.124 1.908-5.004 3.312-8.928 4.284-.18-.648-.684-1.548-1.152-2.052 3.42-.684 6.012-1.764 7.956-3.348-1.368-.684-2.772-1.332-4.176-1.908l-.72 1.296-2.124-.792c.792-1.332 1.764-3.096 2.7-4.932H36.56V20.2h5.148c.576-1.188 1.152-2.376 1.62-3.456l2.844.648c-.108.252-.324.36-.792.324-.36.756-.756 1.62-1.188 2.484zM48.8 22.324h-5.652c-.468.9-.936 1.8-1.404 2.664 1.62.612 3.24 1.296 4.788 2.016 1.044-1.296 1.764-2.844 2.268-4.68zm-2.16-5.652h-2.268v-4.716c-1.836 2.232-4.284 4.32-6.624 5.58-.288-.54-.864-1.368-1.332-1.836 2.664-1.152 5.58-3.564 7.308-6.084h-7.092V7.564h7.74V.652l2.952.18c-.036.252-.216.432-.684.468v6.264h7.632v2.052H46.64v.828c1.476.864 5.328 3.348 6.3 4.068l-1.404 1.764c-.864-.828-3.168-2.628-4.896-3.888zm3.204-9.324l-1.656-.864c.972-1.296 2.232-3.42 2.916-4.86l2.52 1.116c-.108.252-.396.288-.72.252-.756 1.296-2.052 3.132-3.06 4.356zm-11.7-4.86l1.836-.828c1.08 1.476 2.124 3.456 2.52 4.788l-1.908.9c-.36-1.296-1.404-3.348-2.448-4.86z" fill="#fff" fill-rule="evenodd"/></svg>