<svg viewBox="-141 344 328 106" xmlns="http://www.w3.org/2000/svg"><path d="m182.7 366.3c-2.2 0-4-1.7-4.1-4.1 0-2.4 1.9-4.1 4.1-4.1 2.4 0 4.1 1.9 4.1 4.1 0 2.4-1.9 4.1-4.1 4.1zm0-7.6c-1.9 0-3.4 1.6-3.4 3.5s1.5 3.5 3.4 3.5 3.4-1.6 3.4-3.5c0-2-1.5-3.5-3.4-3.5zm1.5 5.9-1.4-2.1h-.8v1.9h-.5v-4.7h1.7c1 0 1.5.5 1.5 1.4s-.5 1.2-1.2 1.4l1.4 2.1zm-.3-3.3c0-.7-.5-.9-1-.9h-1v1.7h.7c.6 0 1.3 0 1.3-.8zm3.1 26.6c0 11.9-9.6 21.6-21.5 21.6s-21.5-9.7-21.5-21.6 9.6-21.6 21.5-21.6c11.8 0 21.5 9.7 21.5 21.6zm-12.8-9c-2.2-2.4-5.5-3.8-9-3.8-3.4 0-6.7 1.6-9 3.8-2.2 2.2-3.6 5.5-3.6 9s1.4 6.7 3.6 9c2.2 2.4 5.5 3.8 9 3.8 3.4 0 6.7-1.6 9-3.8 2.4-2.2 3.8-5.4 3.8-9-.1-3.5-1.5-6.8-3.8-9zm-54.3 30.6c-12 0-21.7-9.7-21.7-21.6.2-11.9 9.8-21.6 21.7-21.6s21.5 9.7 21.5 21.6-9.7 21.6-21.5 21.6zm8.9-30.6c-2.2-2.4-5.5-3.8-9-3.8-3.4 0-6.7 1.6-9 3.8-2.4 2.2-3.8 5.5-3.8 9 .2 3.5 1.5 6.7 3.8 9 2.2 2.4 5.5 3.8 9 3.8 3.4 0 6.7-1.6 9-3.8 2.2-2.2 3.6-5.4 3.6-9 0-3.5-1.4-6.8-3.6-9zm-28.4 30.8c-11.9 0-21.5-9.7-21.5-21.6v-44.1h9v44.1c0 3.5 1.4 6.6 3.6 8.8 2.2 2.4 5.5 3.8 9 3.8v9zm-32.7-4.2c-3.6 2.6-7.9 4.1-12.7 4.1-11.9 0-21.5-9.7-21.5-21.6s9.6-21.6 21.5-21.6 21.5 9.7 21.5 21.6l.2 21.3h-9zm-4-26.6c-2.2-2.4-5.5-3.8-9-3.8-3.4.2-6.7 1.6-9 3.8-2.4 2.2-3.8 5.5-3.8 9 .2 3.5 1.5 6.7 3.8 9 2.2 2.4 5.5 3.8 9 3.8 3.4 0 6.7-1.6 9-3.8 2.4-2.2 3.8-5.4 3.8-9 0-3.5-1.5-6.8-3.8-9zm-45.7 57.1c.4 4 3.2 6.2 6.4 6.2 2.5 0 4.3-1 5.8-2.6l1.7 1.5c-1.8 2.1-4.1 3.4-7.5 3.4-5 0-9.1-3.9-9.1-9.6 0-5.3 3.7-9.6 8.8-9.6 5.4 0 8.5 4.3 8.5 9.7v.9h-14.6zm6-8.2c-3.2 0-5.6 2.7-5.9 6.2h11.8c-.4-3.3-2.3-6.2-5.9-6.2zm-14.8-18c-10.2 0-18.6-6.9-21-16.2-.5-1.7-.7-3.6-.7-5.5v-43.7h9v26.1c3.6-2.6 7.9-4.1 12.7-4.1 5.2 0 10 1.9 13.8 5 4.8 4.1 7.9 10 7.7 16.9 0 11.8-9.7 21.5-21.5 21.5zm9.1-30.7c-2.4-2.2-5.5-3.6-9-3.6-3.4 0-6.7 1.6-9 3.8-2.2 2.2-3.6 5.5-3.6 9 0 1.2.2 2.4.5 3.6.5 2.1 1.7 3.8 3.1 5.2 2.2 2.4 5.5 3.8 9 3.8 3.4 0 6.7-1.6 9-3.8 2.2-2.2 3.6-5.5 3.6-9 0-3.7-1.5-6.6-3.6-9zm-40.4 57.8v7.3h-2.7v-18.3h2.7v4.8c1.3-3 4-5.2 7.4-5.1v2.9h-.2c-3.9 0-7.2 2.9-7.2 8.4zm-15.6-27.6c-12.1 0-21.7-9.7-21.5-21.6h-.2v-20.9h9.1v20.9c.2 3.6 1.5 6.7 3.8 9 2.2 2.4 5.5 3.8 9 3.8s6.7-1.6 9-3.8c2.2-2.2 3.6-5.5 3.6-9v-20.9h9v20.7c0 6-2.4 11.4-6.4 15.4s-9.3 6.4-15.4 6.4zm-14.7 16.2v2.9h-.2c-4 0-7.2 2.9-7.2 8.4v7.3h-2.7v-18.3h2.7v4.8c1.3-3 4-5.2 7.4-5.1zm-19-37.1c-.2-3.6-1.5-6.7-3.8-9-2.2-2.2-5.3-3.6-8.8-3.8-3.4 0-6.7 1.6-9 3.8-2.4 2.2-3.8 5.5-3.8 9v20.9h-9v-20.7c0-6 2.4-11.4 6.4-15.4s9.3-6.4 15.3-6.4c11.9 0 21.5 9.7 21.5 21.6h.2v20.9h-9.1v-20.9zm-38-9.5c-2.2-2.2-5.5-3.6-9-3.6-3.4 0-6.7 1.6-9 3.8-2.4 2.2-3.8 5.5-3.8 9v20.9h-9v-20.9c0-5.9 2.4-11.4 6.4-15.4s9.3-6.4 15.3-6.4c6.7 0 12.6 3.1 16.5 7.8-2.4 2.9-3.8 6.4-4.5 10.2-.5-1.9-1.6-3.7-2.9-5.4zm-22.9 46.6c5.4 0 8.5 4.3 8.5 9.7v.9h-14.5c.4 4 3.2 6.2 6.4 6.2 2.5 0 4.3-1 5.7-2.6l1.7 1.5c-1.8 2.1-4.1 3.4-7.5 3.4-5 0-9.1-3.9-9.1-9.6.1-5.3 3.8-9.5 8.8-9.5zm5.8 8.5c-.3-3.3-2.2-6.2-5.8-6.2-3.2 0-5.6 2.7-5.9 6.2zm10.2-4.9c1.2-2 3.1-3.6 6.2-3.6 4.4 0 7 3 7 7.3v11.4h-2.7v-10.7c0-3.4-1.8-5.5-5-5.5-3.1 0-5.5 2.3-5.5 5.7v10.5h-2.7v-18.3h2.7zm20-8.8h2.7v5.5h5.8v2.4h-5.8v10.8c0 2.2 1.2 3 3.1 3 .9 0 1.7-.2 2.6-.6v2.3c-1 .5-2 .8-3.3.8-2.9 0-5.2-1.5-5.2-5.2v-11.1h-2.5v-2.4h2.5v-5.5zm20.5 5.2c5.4 0 8.5 4.3 8.5 9.7v.9h-14.5c.4 4 3.2 6.2 6.4 6.2 2.5 0 4.3-1 5.8-2.6l1.7 1.5c-1.8 2.1-4.1 3.4-7.5 3.4-5 0-9.1-3.9-9.1-9.6-.1-5.3 3.6-9.5 8.7-9.5zm5.7 8.5c-.3-3.3-2.2-6.2-5.8-6.2-3.2 0-5.6 2.7-5.9 6.2zm24.6-4.5c1.5-2.2 3.6-4.1 7-4.1 4.4 0 8.7 3.5 8.7 9.5s-4.3 9.6-8.7 9.6c-3.4 0-5.6-1.8-7-3.9v9.2h-2.7v-24h2.7zm6.5 12.6c3.5 0 6.4-2.6 6.4-7.1 0-4.4-3-7.1-6.4-7.1s-6.6 2.8-6.6 7.1 3.2 7.1 6.6 7.1zm31.7-20.2h-3.1v-3h3.1zm-.2 22.3h-2.7v-18.3h2.7zm12.5-2c2.2 0 3.8-1.1 3.8-2.9v-.1c0-1.8-2.2-2.6-4.6-3.2-2.9-.8-6-1.8-6-5.2v-.1c0-3.2 2.6-5.2 6.2-5.2 2.2 0 4.7.8 6.6 2l-1.2 2.1c-1.7-1.1-3.6-1.8-5.4-1.8-2.2 0-3.5 1.1-3.5 2.7v.1c0 1.7 2.3 2.4 4.7 3.2 2.8.9 5.9 1.9 5.9 5.2v.1c0 3.5-2.9 5.5-6.5 5.5-2.6 0-5.5-1-7.6-2.7l1.4-1.9c1.9 1.4 4 2.2 6.2 2.2zm45.6-13.3c1.2-1.8 2.8-3.5 5.9-3.5 3 0 4.9 1.6 5.9 3.6 1.3-2 3.2-3.6 6.4-3.6 4.2 0 6.8 2.8 6.8 7.4v11.3h-2.7v-10.7c0-3.5-1.8-5.5-4.7-5.5-2.8 0-5 2.1-5 5.7v10.6h-2.7v-10.8c0-3.4-1.8-5.5-4.7-5.5s-5.1 2.4-5.1 5.8v10.5h-2.7v-18.3h2.7v3zm39.3-3.4c5.5 0 9.5 4.3 9.5 9.5s-4.1 9.6-9.6 9.6-9.5-4.3-9.5-9.5c.1-5.2 4.1-9.6 9.6-9.6zm0 16.7c4 0 6.7-3.2 6.7-7.1 0-4-2.9-7.2-6.8-7.2-4 0-6.7 3.2-6.7 7.1.1 4 3 7.2 6.8 7.2zm17.2-12.7c1.5-2.2 3.6-4.1 7-4.1 4.4 0 8.7 3.5 8.7 9.5s-4.3 9.6-8.7 9.6c-3.4 0-5.6-1.8-7-3.9v3.5h-2.7v-25.9h2.7zm6.5 12.6c3.5 0 6.4-2.6 6.4-7.1 0-4.4-3-7.1-6.4-7.1s-6.6 2.8-6.6 7.1 3.2 7.1 6.6 7.1zm17.4-20.2h-3.1v-3h3.1zm-.2 22.3h-2.7v-18.3h2.7zm9.3 0h-2.7v-25.9h2.7zm9.5-22.3h-3.1v-3h3.1zm-.2 22.3h-2.7v-18.3h2.7zm7.2-23.9h2.7v5.5h5.8v2.4h-5.8v10.8c0 2.2 1.2 3 3.1 3 .9 0 1.7-.2 2.6-.6v2.3c-1 .5-2 .8-3.3.8-2.9 0-5.2-1.5-5.2-5.2v-11.1h-2.5v-2.4h2.5v-5.5zm14.5 5.6 6.6 15.3 5.9-15.3h2.9l-7.7 18.9c-1.6 3.8-3.3 5.2-6.1 5.2-1.5 0-2.6-.3-3.9-.9l.9-2.2c.9.5 1.7.7 2.9.7 1.6 0 2.6-.9 3.7-3.4l-8.3-18.2h3.1z" fill="#fff"/></svg>