<svg xmlns="http://www.w3.org/2000/svg" viewBox="0 0 90 33"><path fill="#fff" d="M72.59 8.417c.594-1.3 1.238-2.207 1.935-2.723 1.108-.823 2.397-1.235 3.867-1.235 1.354 0 2.543.36 3.568 1.1 1.025.73 1.712 1.68 2.06 2.852H72.59zm13.61-5.24C84.13 1.057 81.44 0 78.13 0c-3.113 0-5.703 1.06-7.77 3.176-2.065 2.117-3.098 4.778-3.098 7.982 0 3.128 1.036 5.732 3.108 7.81 2.073 2.078 4.756 3.118 8.05 3.118 2.125 0 3.96-.377 5.503-1.13 1.545-.753 2.87-1.914 3.978-3.484l-4.44-2.085c-1.41 1.377-3.103 2.065-5.073 2.065-1.647 0-3.002-.44-4.063-1.322-1.062-.882-1.715-2.07-1.96-3.563h16.93l.02-1.004c0-3.474-1.035-6.27-3.11-8.387zM.856 29.347l1.21-2.93 1.21 2.93H.856zm1.077-3.187L0 30.8h.257l.514-1.246h2.59l.52 1.246h.257L2.2 26.16h-.265zm6.72.8c.472 0 .89.3 1.084.675l.85-.418c-.33-.584-.92-1.134-1.935-1.134-1.398 0-2.477.967-2.477 2.4 0 1.426 1.08 2.4 2.477 2.4 1.016 0 1.606-.564 1.934-1.14l-.85-.41c-.194.374-.61.674-1.084.674-.85 0-1.46-.648-1.46-1.524 0-.877.61-1.523 1.46-1.523m3.993 3.137c-.55 0-.855-.452-.855-.98 0-.522.305-.974.855-.974.557 0 .862.452.862.974 0 .528-.305.98-.862.98m0-2.74c-1.106 0-1.773.806-1.773 1.76 0 .953.667 1.766 1.773 1.766 1.112 0 1.78-.813 1.78-1.766 0-.954-.668-1.76-1.78-1.76m4.68 2.253a1.003 1.003 0 0 1-.76.384c-.507 0-.854-.35-.854-.926 0-.577.35-.926.86-.926.286 0 .607.16.76.376v1.092zm0-1.738a1.287 1.287 0 0 0-1.044-.515c-.842 0-1.48.612-1.48 1.71 0 1.12.65 1.705 1.48 1.705.42 0 .78-.188 1.05-.52v.326c0 .68-.51.862-.933.862-.417 0-.778-.118-1.05-.41l-.396.633c.424.368.877.5 1.446.5.83 0 1.817-.313 1.817-1.585V27.44h-.884v.432zm3.75-.515c-.543 0-.96.265-1.177.515v-.432h-.883v3.36h.883v-2.267a.983.983 0 0 1 .766-.39c.376 0 .62.16.62.626v2.03h.89v-2.377c0-.654-.356-1.07-1.1-1.07m1.9 3.442h.882v-3.36h-.883zm.437-4.77a.52.52 0 0 0-.52.52c0 .29.24.53.52.53a.528.528 0 0 0 .53-.53.522.522 0 0 0-.53-.52m3.83 2.042v-.635h-2.72v.772h1.518L24.52 30.13v.66h2.748v-.77h-1.572zm2.707 1.92c-.146.193-.425.29-.71.29-.348 0-.633-.18-.633-.5s.285-.51.634-.51c.284 0 .563.107.71.3v.42zm-.584-2.638c-.53 0-1.06.16-1.47.53l.35.617a1.41 1.41 0 0 1 .968-.396c.446 0 .737.224.737.565v.426c-.224-.264-.61-.41-1.064-.41-.54 0-1.165.292-1.165 1.085 0 .75.627 1.113 1.163 1.113.438 0 .834-.16 1.064-.44v.36h.89v-2.17c0-.97-.702-1.276-1.472-1.276zm4.333 0c-.542 0-.96.265-1.174.515v-.43h-.884v3.36h.884v-2.27a.98.98 0 0 1 .764-.39c.377 0 .62.16.62.626v2.03h.89v-2.37c0-.654-.355-1.07-1.1-1.07m3.27 2.74c-.195 0-.306-.16-.306-.377v-1.51h.682v-.77h-.684v-.92h-.883v.92h-.556v.77h.556v1.747c0 .605.328.925.947.925.37 0 .608-.098.74-.217l-.19-.674c-.05.054-.173.103-.305.103m4.85-.186h-.843V27h.85c.946 0 1.447.635 1.447 1.45 0 .79-.537 1.45-1.455 1.45m0-3.77h-1.83v4.64h1.836c1.447 0 2.455-.917 2.455-2.322 0-1.39-1.007-2.317-2.46-2.317m3.073 4.64h.885v-3.36h-.883zm.44-4.77a.52.52 0 0 0-.52.52c0 .29.235.53.52.53a.53.53 0 0 0 .53-.53.522.522 0 0 0-.53-.52m3.56 3.58a1 1 0 0 1-.757.385c-.51 0-.857-.35-.857-.926 0-.578.348-.926.856-.926.283 0 .604.16.756.374v1.092zm0-1.74a1.286 1.286 0 0 0-1.042-.512c-.85 0-1.482.61-1.482 1.71 0 1.12.647 1.703 1.48 1.703.42 0 .78-.186 1.045-.52v.327c0 .68-.507.86-.932.86-.418 0-.78-.117-1.05-.41l-.397.634c.426.37.878.5 1.447.5.83 0 1.817-.31 1.817-1.583V27.41h-.884v.43zm1.69 2.93h.885v-3.36h-.883zM51.02 26a.52.52 0 0 0-.52.524c0 .292.236.53.52.53a.53.53 0 0 0 .53-.53.522.522 0 0 0-.53-.52m2.623 4.068c-.195 0-.307-.16-.307-.374v-1.51h.68v-.77h-.68v-.92h-.883v.92h-.558v.77h.555v1.745c0 .606.326.926.945.926.37 0 .605-.098.737-.217l-.188-.676c-.047.055-.172.103-.304.103m2.927-.104c-.145.193-.423.29-.708.29-.348 0-.633-.18-.633-.5s.284-.51.632-.51c.285 0 .563.107.71.3v.42zm-.583-2.638c-.53 0-1.057.16-1.468.53l.347.617c.28-.258.61-.398.966-.398.445 0 .737.223.737.564v.425c-.222-.266-.61-.413-1.062-.413-.535 0-1.16.292-1.16 1.085 0 .75.624 1.113 1.16 1.113.438 0 .835-.16 1.064-.44v.355h.89v-2.17c0-.967-.702-1.274-1.473-1.274zm2.274 3.443h.884v-4.64h-.883zm5.697-.87h-1.28v-1.05h1.28c.385 0 .59.237.59.53 0 .333-.22.527-.59.527zm-1.28-2.9h1.24c.336 0 .544.2.544.487 0 .3-.208.487-.542.487H62.68V27zm1.99 1.378c.44-.09.8-.488.8-1.065 0-.62-.45-1.183-1.333-1.183h-2.44v4.64h2.518c.89 0 1.35-.557 1.35-1.26 0-.576-.39-1.056-.89-1.132zm3.81 1.308a.99.99 0 0 1-.76.382c-.378 0-.62-.153-.62-.62V27.41h-.89v2.39c0 .654.347 1.057 1.084 1.057.55 0 .954-.257 1.183-.508v.42h.884v-3.36h-.884v2.276zm2.37-1.335c0-.187.206-.327.526-.327.41 0 .793.182.995.39l.356-.626a2.143 2.143 0 0 0-1.35-.46c-.89 0-1.376.495-1.376 1.058 0 1.32 1.99.87 1.99 1.42 0 .21-.18.355-.562.355-.417 0-.91-.23-1.162-.465l-.382.64c.355.327.918.522 1.502.522.933 0 1.46-.453 1.46-1.07 0-1.358-1.995-.94-1.995-1.434m2.574 2.42h.883v-3.36h-.884zM73.86 26a.52.52 0 0 0-.523.523c0 .292.238.53.52.53a.53.53 0 0 0 .53-.53.522.522 0 0 0-.53-.52m3.31 1.328c-.54 0-.96.265-1.173.515v-.432h-.89v3.36h.885v-2.26a.98.98 0 0 1 .763-.39c.373 0 .62.16.62.627v2.032h.89v-2.37c0-.657-.358-1.07-1.1-1.07m3.42 0c1.01 0 1.683.75 1.683 1.84v.21H79.77c.06.41.396.752.966.752.285 0 .675-.12.89-.327l.397.584c-.333.31-.863.468-1.384.468-1.028 0-1.8-.69-1.8-1.767 0-.97.724-1.76 1.74-1.76zm-.82 1.44h1.654c-.026-.32-.25-.72-.833-.72-.55 0-.785.382-.82.717zm3.75-.42c0-.188.207-.328.526-.328.41 0 .792.182.993.39l.356-.626a2.14 2.14 0 0 0-1.35-.46c-.89 0-1.38.493-1.38 1.056 0 1.32 1.99.87 1.99 1.42 0 .208-.18.354-.564.354-.417 0-.91-.23-1.16-.465l-.384.64c.354.328.92.523 1.502.523.933 0 1.46-.453 1.46-1.07 0-1.358-1.994-.94-1.994-1.434m3.247 0c0-.188.21-.328.528-.328.412 0 .795.182.996.39l.356-.626a2.14 2.14 0 0 0-1.35-.46c-.89 0-1.377.493-1.377 1.056 0 1.32 1.99.87 1.99 1.42 0 .208-.18.354-.566.354-.418 0-.91-.23-1.16-.465l-.385.64c.355.328.92.523 1.503.523.93 0 1.46-.453 1.46-1.07 0-1.358-1.996-.94-1.996-1.434M16.17 21.73l3.084-4.927H9.627L19.923.356H4.395L1.337 5.238h9.003L0 21.728zm15.197-5.016c-3.054 0-5.27-2.385-5.27-5.67 0-3.288 2.216-5.674 5.27-5.674 3.054 0 5.27 2.386 5.27 5.673 0 3.286-2.216 5.67-5.27 5.67m0-16.713c-6.14 0-11.132 4.953-11.132 11.043 0 6.09 4.993 11.043 11.132 11.043 6.14 0 11.132-4.954 11.132-11.043C42.5 4.953 37.5 0 31.36 0M65.21 21.73V9.75c0-6.105-3.462-9.75-9.26-9.75-1.853 0-3.57.58-4.833 1.632l-.75.625v-1.9H44.55V21.73h5.82V7.435l.115-.13c1.122-1.257 2.83-2.07 4.352-2.07 2.895 0 4.557 2.084 4.557 5.717V21.73h5.817z"/></svg>